<?xml version="1.0" encoding="iso-8859-1"?>
<!-- Generator: Adobe Illustrator 19.0.0, SVG Export Plug-In . SVG Version: 6.00 Build 0)  -->
<svg xmlns="http://www.w3.org/2000/svg" xmlns:xlink="http://www.w3.org/1999/xlink" version="1.1" id="Capa_1" x="0px" y="0px" viewBox="0 0 424 424" style="enable-background:new 0 0 424 424;" xml:space="preserve" width="512px" height="512px">
<g>
	<path d="M422.501,388.65c0.067-0.094,0.134-0.188,0.197-0.284c0.075-0.114,0.144-0.231,0.212-0.349   c0.064-0.11,0.127-0.22,0.186-0.333c0.056-0.108,0.107-0.218,0.158-0.328c0.06-0.129,0.118-0.258,0.171-0.391   c0.041-0.102,0.077-0.205,0.113-0.308c0.05-0.143,0.099-0.285,0.141-0.431c0.03-0.104,0.055-0.21,0.081-0.315   c0.035-0.144,0.07-0.288,0.098-0.435c0.023-0.122,0.039-0.244,0.056-0.366c0.018-0.131,0.038-0.262,0.05-0.395   c0.014-0.153,0.018-0.306,0.023-0.459C423.99,384.169,424,384.086,424,384V192c0-85.32-22.431-176-64-176H64   c-41.569,0-64,90.68-64,176s22.431,176,64,176h32c4.418,0,8-3.582,8-8s-3.582-8-8-8h-4.074   c7.981-10.064,14.69-24.346,20.074-41.307V400c0,0.021,0.003,0.042,0.003,0.064c0.001,0.179,0.014,0.358,0.027,0.537   c0.006,0.086,0.008,0.173,0.017,0.258c0.018,0.172,0.049,0.344,0.079,0.516c0.016,0.09,0.026,0.181,0.044,0.27   c0.031,0.147,0.074,0.293,0.113,0.439c0.029,0.109,0.054,0.22,0.088,0.327c0.036,0.115,0.083,0.227,0.125,0.34   c0.049,0.135,0.095,0.271,0.152,0.402c0.038,0.089,0.085,0.176,0.127,0.264c0.072,0.152,0.143,0.304,0.224,0.45   c0.043,0.078,0.094,0.154,0.14,0.231c0.09,0.151,0.181,0.301,0.281,0.446c0.013,0.018,0.022,0.037,0.035,0.055   c0.031,0.044,0.069,0.082,0.101,0.126c0.135,0.185,0.277,0.363,0.428,0.535c0.07,0.081,0.141,0.159,0.214,0.235   c0.136,0.144,0.278,0.281,0.425,0.414c0.077,0.07,0.152,0.144,0.232,0.21c0.217,0.183,0.441,0.356,0.677,0.516   c0.048,0.032,0.1,0.059,0.149,0.09c0.199,0.128,0.403,0.249,0.614,0.359c0.083,0.043,0.169,0.082,0.253,0.122   c0.185,0.089,0.373,0.171,0.565,0.246c0.088,0.034,0.175,0.066,0.264,0.097c0.197,0.068,0.397,0.128,0.601,0.181   c0.085,0.022,0.17,0.046,0.256,0.066c0.213,0.048,0.43,0.085,0.65,0.116c0.078,0.011,0.155,0.027,0.234,0.036   c0.268,0.029,0.54,0.045,0.815,0.048c0.025,0,0.051,0.004,0.076,0.004c0.018,0,0.036-0.004,0.054-0.004   c0.338-0.003,0.668-0.031,0.994-0.075c0.096-0.013,0.191-0.027,0.287-0.044c0.347-0.059,0.69-0.132,1.021-0.234   c0.005-0.001,0.009-0.002,0.014-0.004c0.354-0.11,0.694-0.252,1.025-0.408c0.067-0.031,0.133-0.063,0.199-0.096   c0.334-0.169,0.655-0.357,0.96-0.569c0.012-0.009,0.026-0.014,0.038-0.023l18.167-12.767l18.168,12.767   c2.76,1.941,6.44,1.939,9.2,0l18.165-12.767l18.168,12.768c2.76,1.939,6.44,1.938,9.2-0.001l18.165-12.767L252,406.544   c2.76,1.94,6.44,1.94,9.2,0l18.168-12.768l18.17,12.769c2.761,1.939,6.44,1.938,9.199,0l18.172-12.769l18.171,12.769   c2.761,1.939,6.44,1.938,9.199,0l18.173-12.769l18.175,12.769c2.76,1.939,6.438,1.94,9.197,0l22.775-16   c0.066-0.046,0.125-0.1,0.189-0.147c0.128-0.096,0.256-0.192,0.378-0.295c0.098-0.083,0.189-0.17,0.282-0.257   c0.095-0.088,0.19-0.176,0.28-0.269c0.101-0.103,0.195-0.21,0.289-0.317c0.075-0.086,0.151-0.171,0.222-0.26   C422.331,388.885,422.417,388.768,422.501,388.65z M96.008,308.264C86.88,335.65,74.914,352,64,352s-22.88-16.35-32.008-43.735   C21.679,277.327,16,236.037,16,192s5.679-85.327,15.992-116.265C41.12,48.349,53.086,32,64,32s22.88,16.35,32.008,43.735   C106.321,106.672,112,147.962,112,192S106.321,277.327,96.008,308.264z M393.225,390.222l-18.176-12.769   c-2.759-1.939-6.439-1.939-9.198,0l-18.172,12.769l-18.171-12.769c-2.759-1.938-6.438-1.938-9.198,0l-18.172,12.769l-18.17-12.769   c-2.76-1.939-6.439-1.938-9.199,0.001L256.6,390.221l-18.167-12.767c-2.761-1.941-6.44-1.939-9.2,0l-18.166,12.767l-18.168-12.768   c-2.76-1.939-6.44-1.938-9.2,0.001l-18.165,12.767l-18.167-12.767c-2.76-1.941-6.439-1.939-9.2,0L128,384.6V192   c0-63.639-12.482-130.251-36.074-160H360c4.089,0,18.481,3.154,32.008,43.735C402.321,106.672,408,147.962,408,192v187.844   L393.225,390.222z" fill="#FFFFFF"/>
	<path d="M78.5,170.041c-4.396,0.446-7.597,4.371-7.151,8.768C71.781,183.058,72,187.497,72,192c0,22.111-5.043,35.518-8,39.273   c-2.957-3.756-8-17.162-8-39.273c0-22.221,5.093-35.649,8.044-39.329c3.159,2.497,7.759,2.268,10.652-0.664   c3.103-3.146,3.067-8.212-0.08-11.313C70.683,136.814,66.672,136,64,136c-16.579,0-24,28.126-24,56s7.421,56,24,56s24-28.126,24-56   c0-5.04-0.247-10.022-0.732-14.809C86.821,172.795,82.891,169.584,78.5,170.041z" fill="#FFFFFF"/>
	<path d="M153,96h-17c-4.418,0-8,3.582-8,8s3.582,8,8,8h17c4.418,0,8-3.582,8-8S157.418,96,153,96z" fill="#FFFFFF"/>
	<path d="M193,96h-17c-4.418,0-8,3.582-8,8s3.582,8,8,8h17c4.418,0,8-3.582,8-8S197.418,96,193,96z" fill="#FFFFFF"/>
	<path d="M233,96h-17c-4.418,0-8,3.582-8,8s3.582,8,8,8h17c4.418,0,8-3.582,8-8S237.418,96,233,96z" fill="#FFFFFF"/>
	<path d="M273,96h-17c-4.418,0-8,3.582-8,8s3.582,8,8,8h17c4.418,0,8-3.582,8-8S277.418,96,273,96z" fill="#FFFFFF"/>
	<path d="M313,96h-17c-4.418,0-8,3.582-8,8s3.582,8,8,8h17c4.418,0,8-3.582,8-8S317.418,96,313,96z" fill="#FFFFFF"/>
	<path d="M353,96h-17c-4.418,0-8,3.582-8,8s3.582,8,8,8h17c4.418,0,8-3.582,8-8S357.418,96,353,96z" fill="#FFFFFF"/>
	<path d="M385,96h-9c-4.418,0-8,3.582-8,8s3.582,8,8,8h9c4.418,0,8-3.582,8-8S389.418,96,385,96z" fill="#FFFFFF"/>
</g>
<g>
</g>
<g>
</g>
<g>
</g>
<g>
</g>
<g>
</g>
<g>
</g>
<g>
</g>
<g>
</g>
<g>
</g>
<g>
</g>
<g>
</g>
<g>
</g>
<g>
</g>
<g>
</g>
<g>
</g>
</svg>
